<svg width="25" height="23" viewBox="0 0 25 23" fill="none" xmlns="http://www.w3.org/2000/svg">
<path d="M22.6562 1.875C22.8635 1.875 23.0622 1.97377 23.2087 2.14959C23.3552 2.3254 23.4375 2.56386 23.4375 2.8125V19.6875C23.4375 19.9361 23.3552 20.1746 23.2087 20.3504C23.0622 20.5262 22.8635 20.625 22.6562 20.625H2.34375C2.13655 20.625 1.93784 20.5262 1.79132 20.3504C1.64481 20.1746 1.5625 19.9361 1.5625 19.6875V2.8125C1.5625 2.56386 1.64481 2.3254 1.79132 2.14959C1.93784 1.97377 2.13655 1.875 2.34375 1.875H22.6562ZM2.34375 0C1.72215 0 1.12601 0.296316 0.686468 0.823762C0.24693 1.35121 0 2.06658 0 2.8125L0 19.6875C0 20.4334 0.24693 21.1488 0.686468 21.6762C1.12601 22.2037 1.72215 22.5 2.34375 22.5H22.6562C23.2779 22.5 23.874 22.2037 24.3135 21.6762C24.7531 21.1488 25 20.4334 25 19.6875V2.8125C25 2.06658 24.7531 1.35121 24.3135 0.823762C23.874 0.296316 23.2779 0 22.6562 0H2.34375Z" fill="#E0A64E"/>
<path d="M4.6875 12.1875C4.6875 11.9389 4.76981 11.7004 4.91632 11.5246C5.06284 11.3488 5.26155 11.25 5.46875 11.25H19.5312C19.7385 11.25 19.9372 11.3488 20.0837 11.5246C20.2302 11.7004 20.3125 11.9389 20.3125 12.1875C20.3125 12.4361 20.2302 12.6746 20.0837 12.8504C19.9372 13.0262 19.7385 13.125 19.5312 13.125H5.46875C5.26155 13.125 5.06284 13.0262 4.91632 12.8504C4.76981 12.6746 4.6875 12.4361 4.6875 12.1875ZM4.6875 15.9375C4.6875 15.6889 4.76981 15.4504 4.91632 15.2746C5.06284 15.0988 5.26155 15 5.46875 15H14.8438C15.051 15 15.2497 15.0988 15.3962 15.2746C15.5427 15.4504 15.625 15.6889 15.625 15.9375C15.625 16.1861 15.5427 16.4246 15.3962 16.6004C15.2497 16.7762 15.051 16.875 14.8438 16.875H5.46875C5.26155 16.875 5.06284 16.7762 4.91632 16.6004C4.76981 16.4246 4.6875 16.1861 4.6875 15.9375ZM4.6875 6.5625C4.6875 6.31386 4.76981 6.0754 4.91632 5.89959C5.06284 5.72377 5.26155 5.625 5.46875 5.625H19.5312C19.7385 5.625 19.9372 5.72377 20.0837 5.89959C20.2302 6.0754 20.3125 6.31386 20.3125 6.5625V8.4375C20.3125 8.68614 20.2302 8.9246 20.0837 9.10041C19.9372 9.27623 19.7385 9.375 19.5312 9.375H5.46875C5.26155 9.375 5.06284 9.27623 4.91632 9.10041C4.76981 8.9246 4.6875 8.68614 4.6875 8.4375V6.5625Z" fill="#E0A64E"/>
</svg>
