<svg width="13" height="10" viewBox="0 0 13 10" fill="none" xmlns="http://www.w3.org/2000/svg">
<path fill-rule="evenodd" clip-rule="evenodd" d="M0.75 4.99989C0.75 4.81756 0.825725 4.64269 0.960517 4.51376C1.09531 4.38483 1.27813 4.31239 1.46875 4.31239H9.79619L6.70988 1.36164C6.57491 1.23255 6.49909 1.05746 6.49909 0.874892C6.49909 0.692326 6.57491 0.517236 6.70988 0.388142C6.84484 0.259048 7.02788 0.186523 7.21875 0.186523C7.40962 0.186523 7.59266 0.259048 7.72762 0.388142L12.0401 4.51314C12.1071 4.577 12.1602 4.65287 12.1964 4.7364C12.2326 4.81992 12.2513 4.90946 12.2513 4.99989C12.2513 5.09032 12.2326 5.17986 12.1964 5.26339C12.1602 5.34691 12.1071 5.42278 12.0401 5.48664L7.72762 9.61164C7.59266 9.74074 7.40962 9.81326 7.21875 9.81326C7.02788 9.81326 6.84484 9.74074 6.70988 9.61164C6.57491 9.48255 6.49909 9.30746 6.49909 9.12489C6.49909 8.94233 6.57491 8.76724 6.70988 8.63814L9.79619 5.68739H1.46875C1.27813 5.68739 1.09531 5.61496 0.960517 5.48603C0.825725 5.3571 0.75 5.18223 0.75 4.99989Z" fill="#8D4337"/>
</svg>
